<svg xmlns="http://www.w3.org/2000/svg" viewBox="0 0 1080 1080"><defs><style>.cls-1{isolation:isolate;}.cls-2{fill:#006482;}.cls-3,.cls-7,.cls-9{fill:#fff;mix-blend-mode:screen;}.cls-3{opacity:0.15;}.cls-4{fill:#505050;}.cls-5{fill:#78b400;}.cls-6{fill:#414042;}.cls-7{opacity:0.1;}.cls-8{fill:#d2ebeb;}.cls-9{opacity:0.2;}.cls-10{fill:#469600;}</style></defs><title>Artboard 1</title><g class="cls-1"><g id="Layer_1" data-name="Layer 1"><path class="cls-2" d="M753.12,947.48H491.28V377.07A129.48,129.48,0,0,1,620.76,247.59h2.88A129.48,129.48,0,0,1,753.12,377.07Z"/><path class="cls-3" d="M753.12,947.48V377.07A129.48,129.48,0,0,0,623.64,247.59h-2.88V947.48Z"/><polygon class="cls-4" points="103.58 960.45 86.31 960.45 86.31 692.85 158.96 692.85 158.96 710.12 103.58 710.12 103.58 960.45"/><polygon class="cls-4" points="135.58 960.45 118.32 960.45 118.32 739.61 158.96 739.61 158.96 756.87 135.58 756.87 135.58 960.45"/><polygon class="cls-4" points="961 952.95 943.74 952.95 943.74 534.3 884.03 534.3 884.03 517.04 961 517.04 961 952.95"/><polygon class="cls-5" points="577.15 569.85 437.93 665.87 298.71 569.85 158.96 666.24 158.96 960.45 716.79 960.45 716.79 666.24 716.79 666.24 577.15 569.85"/><rect class="cls-6" x="53.22" y="947.5" width="934.4" height="25.89"/><polygon class="cls-4" points="217.23 626.05 217.23 569.85 195.65 569.85 195.65 640.93 217.23 626.05"/><path class="cls-4" d="M901.3,947.48H787.65V203a51.79,51.79,0,0,1,51.79-51.79H849.5A51.79,51.79,0,0,1,901.3,203Z"/><path class="cls-7" d="M901.3,947.48V203a51.79,51.79,0,0,0-51.79-51.79H839.44V947.48Z"/><rect class="cls-5" x="474.21" y="343.62" width="296" height="17.27"/><rect class="cls-5" x="474.21" y="324.2" width="296" height="8.63"/><rect class="cls-5" x="474.21" y="494.67" width="296" height="17.27"/><rect class="cls-5" x="474.21" y="527.59" width="296" height="8.63"/><rect class="cls-5" x="769.85" y="211.44" width="149.25" height="17.27"/><rect class="cls-5" x="769.85" y="243.27" width="149.25" height="8.63"/><rect class="cls-5" x="769.85" y="381.92" width="149.25" height="17.26"/><rect class="cls-5" x="769.85" y="413.75" width="149.25" height="8.64"/><rect class="cls-5" x="769.85" y="549.71" width="149.25" height="17.26"/><rect class="cls-5" x="769.85" y="581.54" width="149.25" height="8.63"/><rect class="cls-5" x="769.85" y="629.01" width="149.25" height="17.27"/><rect class="cls-6" x="268.29" y="818.37" width="58.81" height="142.08"/><rect class="cls-8" x="371.7" y="865.3" width="56.11" height="56.11"/><rect class="cls-8" x="451.6" y="865.3" width="56.11" height="56.11"/><rect class="cls-8" x="531.51" y="865.3" width="56.11" height="56.11"/><rect class="cls-8" x="611.41" y="865.3" width="56.1" height="56.11"/><rect class="cls-8" x="371.7" y="789.6" width="56.11" height="56.11"/><rect class="cls-8" x="451.6" y="789.6" width="56.11" height="56.11"/><rect class="cls-8" x="531.51" y="789.6" width="56.11" height="56.11"/><rect class="cls-8" x="611.41" y="789.6" width="56.1" height="56.11"/><rect class="cls-8" x="639.47" y="672.71" width="38.83" height="86.32"/><rect class="cls-8" x="584.38" y="672.71" width="38.84" height="86.32"/><rect class="cls-8" x="529.29" y="672.71" width="38.85" height="86.32"/><rect class="cls-8" x="474.21" y="672.71" width="38.84" height="86.32"/><rect class="cls-8" x="360.91" y="672.71" width="38.84" height="86.32"/><rect class="cls-8" x="305.81" y="672.71" width="38.85" height="86.32"/><rect class="cls-8" x="250.74" y="672.71" width="38.84" height="86.32"/><rect class="cls-8" x="195.65" y="672.71" width="38.84" height="86.32"/><rect class="cls-8" x="197.8" y="797.87" width="34.52" height="112.21"/><rect class="cls-4" x="835.13" y="64.16" width="8.63" height="87.04"/><ellipse class="cls-5" cx="839.44" cy="62" rx="12.94" ry="12.95"/><rect class="cls-9" x="491.28" y="419.86" width="261.84" height="35.25"/><polygon class="cls-6" points="437.93 665.87 452.98 655.5 452.98 407.82 491.28 407.82 491.28 390.55 435.72 390.55 435.72 664.34 437.93 665.87"/><path class="cls-5" d="M1022.7,797.06c-24.77,24.77-119.31,47.5-152.66,82.32-54.34,56.75-30.37,129.48-30.37,129.48,83.92,45.56,141.05,8,162.24-24C1041.09,925.74,1022.7,797.06,1022.7,797.06Z"/><path class="cls-10" d="M981.91,891.6c-10.85,15.91-22.74,32.7-36,48.82a335,335,0,0,1-30.51,33.28c-18.31,17.55-38.84,32.32-61.86,41.72-55.92,21-103.48,12.19-142.61-35.48l-5.19-6.24h26c16.49,16.4,35.1,29.45,62.72,32.42,33.77,5.18,72.33-13.62,100.24-32.42,16.39-10.93,29.15-22.06,35-28.3,7.76-7.48,12.76-12.18,16.21-15.54C957.17,919,953.42,922.1,981.91,891.6Z"/></g></g></svg>