<svg xmlns="http://www.w3.org/2000/svg" viewBox="0 0 1080 1080"><defs><style>.cls-1{isolation:isolate;}.cls-2{fill:#969696;}.cls-3{fill:#b4b4b4;}.cls-4{fill:#505050;}.cls-5{fill:#e1e1e1;}.cls-6{fill:#ebebeb;}.cls-7{opacity:0.2;}.cls-7,.cls-9{mix-blend-mode:screen;}.cls-8{fill:#fff;}.cls-9{opacity:0.1;}</style></defs><title>Artboard 1</title><g class="cls-1"><g id="Layer_1" data-name="Layer 1"><path class="cls-2" d="M878.28,680.84a20.76,20.76,0,0,1,7.4,28.42L822.63,816.74a20.76,20.76,0,0,1-28.42,7.4l-83-48.71,84.07-143.3Z"/><rect class="cls-3" x="654.13" y="678.2" width="181.72" height="41.53" transform="matrix(0.51, -0.86, 0.86, 0.51, -234.86, 987.86)"/><path class="cls-4" d="M896.54,728.47a20.76,20.76,0,0,1,2.6,24.53l-31.77,54.15a20.77,20.77,0,0,1-22.68,9.7l-19.44-4.59,57.8-98.53Z"/><rect class="cls-3" x="748.27" y="745.23" width="166.15" height="8.79" transform="translate(-235.9 1087.36) rotate(-59.6)"/><rect class="cls-3" x="725.46" y="731.84" width="166.15" height="8.81" transform="translate(-235.62 1061.08) rotate(-59.6)"/><rect class="cls-3" x="702.64" y="718.46" width="166.15" height="8.8" transform="matrix(0.51, -0.86, 0.86, 0.51, -235.35, 1034.79)"/><polygon class="cls-5" points="767.81 619.04 686.35 757.88 541.47 784.23 720.12 479.71 767.81 619.04"/><rect class="cls-6" x="402.21" y="541.08" width="353.06" height="120.71" transform="translate(-232.86 796.28) rotate(-59.6)"/><path class="cls-5" d="M480.88,649,454.16,694.5c-32.62-19.13-77.26-45.33-114.58-32.67l-17-50C382.78,591.41,441.81,626,480.88,649Z"/><path class="cls-5" d="M519.34,412.79a36.24,36.24,0,0,1-4.65,6.28L389.1,555.25A36.35,36.35,0,1,1,335.66,506L461.26,369.78a36.34,36.34,0,0,1,58.08,43Z"/><path class="cls-6" d="M360.32,651.17a36.35,36.35,0,0,1-65.89-29.72l91-278.22a36.35,36.35,0,0,1,69.1,22.59L363.52,644A36,36,0,0,1,360.32,651.17Z"/><path class="cls-6" d="M281.76,599.63a36.35,36.35,0,0,1-65.88-29.72l88-269.07A36.34,36.34,0,0,1,373,323.44L285,592.5A36.67,36.67,0,0,1,281.76,599.63Z"/><path class="cls-6" d="M204.05,549.58a36.36,36.36,0,0,1-65.89-29.75l85.56-261.54a36.35,36.35,0,0,1,69.08,22.62L207.25,542.44A36.69,36.69,0,0,1,204.05,549.58Z"/><path class="cls-6" d="M133.19,489.19a36.35,36.35,0,0,1-65.88-29.74l55.85-170.74a36.34,36.34,0,1,1,69.09,22.59L136.41,482.07A36.67,36.67,0,0,1,133.19,489.19Z"/><path class="cls-6" d="M518.46,375.67a27.46,27.46,0,0,0-49.15,24.52c22.67,45.41,69.19,72.7,103.16,92.63l27.78-47.35C572.22,429,533.82,406.5,518.46,375.67Z"/><g class="cls-7"><path class="cls-8" d="M616.06,418.6,600.3,445.47c-26.5-15.55-62-36.59-78.87-64.82a37.23,37.23,0,0,0-8.77-13,36.43,36.43,0,0,0-51.44,2.09l-12.39,13.55,5.68-17.49a36.35,36.35,0,1,0-69.1-22.6L345.73,464.67,428.12,513,497,438.32c23.29,23.9,52.31,40.93,75.5,54.54l-45.76,78L883.31,780l15.86-27a20.83,20.83,0,0,0-2.59-24.53l-13.48-14.77,2.63-4.48a20.83,20.83,0,0,0-7.4-28.42l-73.36-43,3.89-6.63-35.82-21-5.25,9L720.15,479.66Z"/><path class="cls-8" d="M373,323.42l-43.18,131.9-64.13-37.62,38.22-116.87a36.35,36.35,0,0,1,69.1,22.6Z"/><path class="cls-8" d="M292.82,280.87,250.87,409,186.75,371.4l37-113.14a36.34,36.34,0,0,1,69.08,22.6Z"/><path class="cls-8" d="M192.26,311.31l-17.33,53.15-64.21-37.67,12.46-38.07a36.34,36.34,0,0,1,69.09,22.59Z"/></g><g class="cls-9"><path class="cls-8" d="M192.26,311.31l-17.33,53.15-64.21-37.67,12.46-38.07a36.34,36.34,0,0,1,69.09,22.59Z"/><path class="cls-8" d="M292.82,280.87,250.87,409,186.75,371.4l37-113.14a36.34,36.34,0,0,1,69.08,22.6Z"/><path class="cls-8" d="M373,323.42l-43.18,131.9-64.13-37.62,38.22-116.87a36.35,36.35,0,0,1,69.1,22.6Z"/><path class="cls-8" d="M720.15,479.66l47.63,139.42,5.25-9,35.82,21L805,637.78l73.36,43a20.83,20.83,0,0,1,7.4,28.42l-2.63,4.48,13.48,14.77A20.83,20.83,0,0,1,899.17,753l-15.86,27L526.74,570.86l45.76-78c-23.2-13.61-52.22-30.63-75.5-54.54L428.12,513l-82.39-48.34L385.4,343.24a36.35,36.35,0,1,1,69.1,22.6l-5.68,17.49,12.39-13.55a36.43,36.43,0,0,1,51.44-2.09,37.23,37.23,0,0,1,8.77,13c16.89,28.23,52.36,49.27,78.87,64.82l15.76-26.87Z"/></g></g></g></svg>