<svg xmlns="http://www.w3.org/2000/svg" viewBox="0 0 1080 1080"><defs><style>.cls-1{isolation:isolate;}.cls-2{fill:#1f714b;}.cls-3{fill:#414042;}.cls-4{fill:#006482;}.cls-5{fill:#fff;opacity:0.2;mix-blend-mode:screen;}.cls-6{fill:#e1e1e1;}.cls-7{fill:#b4b4b4;}.cls-8{fill:#58b328;}</style></defs><title>Artboard 1</title><g class="cls-1"><g id="Layer_1" data-name="Layer 1"><path class="cls-2" d="M467.58,1071c-138-168.87-203.71-327.89-190-459.86,10.53-101,63.31-162.9,105.72-197.06l23.38,29c-36.91,29.72-82.83,83.65-92,171.88C302,736.87,364.85,886.4,496.45,1047.41Z"/><polygon class="cls-3" points="392.57 462.59 405.74 451.92 417.52 466.5 429.78 456.54 417.98 442 431.12 431.37 442.88 445.93 551.01 358.33 494.96 289.26 386.92 376.86 398.71 391.43 385.52 402.09 373.76 387.53 361.56 397.41 373.34 411.98 360.19 422.66 348.4 408.1 335.71 418.38 391.68 487.49 404.44 477.17 392.57 462.59"/><path class="cls-4" d="M807,336.49,569.29,43.24,431.05,155.33c23.53,29.1,17.76,72.78-12.86,97.62l-5.45,4.47C379.9,284,373.74,330.84,399,362l60.88,75.14c25.32,31.17,72.36,34.84,105.22,8.2l5.43-4.44c30.66-24.83,74.63-21.41,98.2,7.65Z"/><polygon class="cls-5" points="675.88 442.77 438.16 149.51 569.29 43.24 807.01 336.49 675.88 442.77"/><path class="cls-6" d="M646.83,150.4l-30.26-37.33L736.33,15.91A21.78,21.78,0,0,1,767,19.13l2.86,3.54a21.77,21.77,0,0,1-3.22,30.6Z"/><polygon class="cls-5" points="675.88 442.77 557.04 296.13 688.15 189.83 807.01 336.49 675.88 442.77"/><path class="cls-6" d="M748.53,275.8l-30.29-37.37,119.85-97.09a21.78,21.78,0,0,1,30.62,3.2l2.86,3.53a21.78,21.78,0,0,1-3.2,30.64Z"/><polygon class="cls-4" points="800.75 377.74 527.64 40.86 551.62 21.38 824.73 358.32 800.75 377.74"/><path class="cls-7" d="M769.84,22.62,767,19.09a21.78,21.78,0,0,0-30.64-3.2L684.88,57.6,715.2,94.92l51.42-41.69A21.78,21.78,0,0,0,769.84,22.62Z"/><path class="cls-7" d="M871.54,148.08l-2.85-3.54a21.87,21.87,0,0,0-30.66-3.2l-51.45,41.73,30.29,37.34,51.5-41.68A21.79,21.79,0,0,0,871.54,148.08Z"/><path class="cls-8" d="M946.43,632.07c-54.36,7.77-177-81-288.9-69.89-219.37,21.74-281.65,323.94-199.85,466.4C477.36,919.42,519.34,841.25,642,852.63,859.45,872.82,946.43,632.07,946.43,632.07Z"/><path class="cls-2" d="M452.44,1052s-1.33-2.22-3.83-6.37a119.71,119.71,0,0,1-5.11-11.22,109.27,109.27,0,0,1-4-13.66c-4.95-20.37-5.6-48.34-.93-80.24s14.42-68,30-104.38,37-73.34,65.45-104.9c14.2-15.71,30.11-30.08,47.79-41.45,4.31-2.58,9.1-5.88,13.48-8,4.37-2.38,8.75-4.75,13.55-6.9a239.2,239.2,0,0,1,28-11.19c37.63-12.3,74.9-13.88,105.74-10.67a306.34,306.34,0,0,1,72.79,16.69c16.93,6.17,26,11.07,26,11.07s-9.33-4.37-26.5-9.54a302.83,302.83,0,0,0-72.7-12.36c-30.36-1.43-66.29,2.28-101.31,16a226.78,226.78,0,0,0-25.73,12c-4.13,2.12-8.38,4.73-12.66,7.39-4.47,2.56-7.77,5.28-12,8.11-15.73,11.41-29.78,25.62-42.23,41.05-24.9,31-43.21,67.07-55.94,102.12S472.35,915,469.8,944.17s-.3,53.26,4.19,67.58a74.3,74.3,0,0,0,3.26,9.12l2.36,4.83,4.13,6Z"/><path class="cls-8" d="M95.79,1000.71C131,904.41,260,830.88,383.46,1010c-49.51-14.5-132.35,49.18-182.05,49.18S95.79,1000.71,95.79,1000.71Z"/><path class="cls-2" d="M383.46,1010s-3.65-1.55-9.87-4.53c-6.15-3.15-15.2-7-25.81-11.87C337,989,324.62,983.4,311,978.68c-6.72-2.69-14-4.45-21.12-6.78a209.57,209.57,0,0,0-22.17-5,157.56,157.56,0,0,0-22.42-2.68,185.17,185.17,0,0,0-21.85,0c-7,.86-14,1.17-20.34,2.71a147.08,147.08,0,0,0-18,4.38c-5.61,1.44-10.56,3.38-15,5a92.83,92.83,0,0,0-11.42,4.6c-6.26,2.79-10,4.26-10,4.26s3.12-2.39,8.81-6.37A95.27,95.27,0,0,1,168,972.13a101,101,0,0,1,14.56-7.46l8.66-3.71,9.65-3c6.59-2.24,13.91-3.36,21.4-4.57,7.58-.79,15.44-1.6,23.46-1.14a163.42,163.42,0,0,1,24.08,2.45,217.31,217.31,0,0,1,23.41,5.7,218.17,218.17,0,0,1,21.72,8.12,207.82,207.82,0,0,1,19.44,9.31c6.16,3,11.57,6.53,16.7,9.51,10.15,6.23,18.18,12.06,23.73,16.09S383.46,1010,383.46,1010Z"/></g></g></svg>