<svg xmlns="http://www.w3.org/2000/svg" viewBox="0 0 1080 1080"><defs><style>.cls-1{isolation:isolate;}.cls-2{fill:#006482;}.cls-3,.cls-6{fill:#fff;mix-blend-mode:screen;}.cls-3{opacity:0.2;}.cls-4{fill:#414042;}.cls-5{fill:#505050;}.cls-6{opacity:0.1;}.cls-7{fill:#ffdc00;}</style></defs><title>Artboard 1</title><g class="cls-1"><g id="Layer_1" data-name="Layer 1"><polygon class="cls-2" points="877.53 862.21 65.23 862.21 123.88 360.74 818.88 360.74 877.53 862.21"/><polygon class="cls-3" points="104.77 827.02 155.19 395.93 787.55 395.93 837.99 827.02 104.77 827.02"/><rect class="cls-2" x="465.51" y="395.93" width="11.73" height="431.09"/><rect class="cls-2" x="579.3" y="395.77" width="11.74" height="431.41" transform="translate(-23.39 23.28) rotate(-2.23)"/><rect class="cls-2" x="693.11" y="395.28" width="11.72" height="432.4" transform="translate(-45.44 56.21) rotate(-4.46)"/><polygon class="cls-2" points="355.04 827.25 343.3 826.79 360.12 395.7 371.85 396.16 355.04 827.25"/><rect class="cls-2" x="27.58" y="605.61" width="432.4" height="11.72" transform="translate(-384.88 806.72) rotate(-85.52)"/><rect class="cls-2" x="145.11" y="476.28" width="652.52" height="11.73"/><rect class="cls-2" x="135.02" y="562.5" width="672.72" height="11.73"/><rect class="cls-2" x="124.94" y="648.71" width="692.88" height="11.73"/><rect class="cls-2" x="114.85" y="734.93" width="713.06" height="11.74"/><rect class="cls-4" x="407.84" y="857.32" width="127.08" height="105.56"/><rect class="cls-5" x="371.66" y="937.47" width="199.43" height="50.83"/><polygon class="cls-6" points="877.53 862.21 818.88 360.74 471.37 360.74 471.37 988.3 571.09 988.3 571.09 937.48 534.92 937.48 534.92 862.21 877.53 862.21"/><path class="cls-7" d="M897.44,295.27A114.21,114.21,0,1,1,783.23,181.06,114.21,114.21,0,0,1,897.44,295.27Z"/><path class="cls-7" d="M783.23,162.36a132.4,132.4,0,0,1,27.67,2.92s0,0,0,0C796,140.78,783.23,88.75,783.23,63.49c0,25.25-12.76,77.29-27.67,101.76,0,0,0,0,0,0A132.51,132.51,0,0,1,783.23,162.36Z"/><path class="cls-7" d="M916.13,295.27a132.55,132.55,0,0,1-2.92,27.67h0C937.71,308,989.76,295.27,1015,295.27c-25.24,0-77.29-12.76-101.75-27.67h0A132.57,132.57,0,0,1,916.13,295.27Z"/><path class="cls-7" d="M783.23,428.17a132.43,132.43,0,0,1-27.68-2.92s0,0,0,0c14.91,24.46,27.67,76.5,27.67,101.75,0-25.25,12.75-77.29,27.66-101.75,0,0,0,0,0,0A132.33,132.33,0,0,1,783.23,428.17Z"/><path class="cls-7" d="M650.32,295.27a133.22,133.22,0,0,1,2.92-27.68h0c-24.48,14.91-76.52,27.67-101.77,27.67,25.25,0,77.29,12.75,101.77,27.66h0A133.2,133.2,0,0,1,650.32,295.27Z"/><path class="cls-7" d="M689.26,201.29a132.86,132.86,0,0,1,21.62-17.51h0C683,177,637.2,149.24,619.34,131.38,637.2,149.24,665,195,671.74,222.9v0A132.93,132.93,0,0,1,689.26,201.29Z"/><path class="cls-7" d="M877.21,201.29a132.86,132.86,0,0,1,17.51,21.63v0c6.77-27.86,34.54-73.66,52.4-91.52-17.86,17.86-63.65,45.63-91.52,52.4h0A133.42,133.42,0,0,1,877.21,201.29Z"/><path class="cls-7" d="M877.21,389.24a132.86,132.86,0,0,1-21.63,17.51h0c27.87,6.77,73.66,34.54,91.52,52.4-17.86-17.86-45.63-63.65-52.4-91.52v0A132.86,132.86,0,0,1,877.21,389.24Z"/><path class="cls-7" d="M689.26,389.24a132.93,132.93,0,0,1-17.52-21.63v0c-6.77,27.87-34.54,73.66-52.4,91.52,17.86-17.86,63.66-45.63,91.52-52.4h0A132.3,132.3,0,0,1,689.26,389.24Z"/></g></g></svg>