<svg xmlns="http://www.w3.org/2000/svg" viewBox="0 0 1080 1080"><defs><style>.cls-1{isolation:isolate;}.cls-2{fill:#006482;}.cls-3{fill:#d2ebeb;}.cls-4{fill:#fff;opacity:0.2;mix-blend-mode:screen;}.cls-5{fill:#78b400;}.cls-6{fill:#414042;}</style></defs><title>Artboard 1</title><g class="cls-1"><g id="Layer_1" data-name="Layer 1"><polygon class="cls-2" points="755.61 499.27 770.02 885.65 718.15 885.65 732.52 499.27 755.61 499.27"/><path class="cls-3" d="M745.64,511.9a140.89,140.89,0,0,1,15.94,1.9c4.91.88,10.89,1.95,17.45,3.67s13.92,3.74,21.66,6.4,16,5.74,24.58,9.44a215.67,215.67,0,0,1,26,13A289.28,289.28,0,0,1,876.8,564c8.5,6.41,17.2,12.81,26.08,18.9,17.71,12.2,35.59,24.18,52,36,16.5,11.62,31.77,22.76,44.84,32.28,26.15,19.11,43.28,32.35,43.28,32.35l-2.43,4.23s-20-8.22-49.66-21.29c-14.79-6.59-32.06-14.22-50.39-22.72-18.44-8.28-37.73-17.77-57.19-27-9.72-4.64-19.59-9-29.4-13.12a286.91,286.91,0,0,1-28.13-13.29,211.75,211.75,0,0,1-24.26-16c-7.46-5.53-14.31-11.1-20.46-16.55s-11.63-10.69-16.35-15.56S756,532.8,752.83,529a142,142,0,0,1-9.62-12.85Z"/><path class="cls-3" d="M745.3,516.13A134.61,134.61,0,0,1,735.69,529c-3.23,3.82-7.13,8.45-11.88,13.27s-10.22,10.18-16.39,15.56-13,11-20.44,16.55a213.53,213.53,0,0,1-24.26,16,284,284,0,0,1-28.16,13.29c-9.78,4.17-19.68,8.47-29.39,13.12-19.41,9.26-38.73,18.75-57.17,27-18.34,8.5-35.6,16.14-50.39,22.72-29.62,13.07-49.66,21.29-49.66,21.29l-2.43-4.23s17.13-13.24,43.28-32.35c13.05-9.52,28.33-20.65,44.86-32.28,16.39-11.83,34.27-23.81,52-36,8.84-6.09,17.54-12.49,26-18.9a289.36,289.36,0,0,1,25.58-17.73,213.76,213.76,0,0,1,26-13c8.49-3.7,16.74-6.84,24.55-9.44s15.08-4.74,21.68-6.4,12.51-2.79,17.42-3.67a140.89,140.89,0,0,1,15.94-1.9Z"/><path class="cls-3" d="M741.29,514A139.51,139.51,0,0,1,735,499.25c-1.68-4.7-3.72-10.4-5.5-16.95s-3.71-13.92-5.25-22-3-16.78-4.05-26a215.35,215.35,0,0,1-1.66-29,287.54,287.54,0,0,1,2.61-31c1.33-10.55,2.57-21.28,3.41-32,1.74-21.46,3.25-42.92,5.32-63,1.85-20.12,3.9-38.89,5.64-55C739,192.11,742,170.67,742,170.67h4.89s2.86,21.47,6.27,53.67c1.64,16.1,3.65,34.87,5.41,55,2,20.13,3.38,41.6,5,63,.82,10.73,2,21.47,3.28,32a295.46,295.46,0,0,1,2.5,31,214.57,214.57,0,0,1-1.81,29c-1.05,9.22-2.5,17.94-4.15,26s-3.47,15.41-5.35,21.95-3.85,12.24-5.58,16.91A141.08,141.08,0,0,1,746.16,514Z"/><path class="cls-4" d="M763.61,342.38c-1.66-21.45-3.06-42.92-5-63-1.76-20.13-3.76-38.9-5.41-55-3.4-32.2-6.27-53.67-6.27-53.67H745.3V514h.86a141.08,141.08,0,0,0,6.34-14.75c1.74-4.67,3.8-10.38,5.58-16.91s3.76-13.91,5.35-21.95,3.09-16.77,4.15-26a214.57,214.57,0,0,0,1.81-29,295.46,295.46,0,0,0-2.5-31C765.59,363.85,764.42,353.11,763.61,342.38Z"/><path class="cls-4" d="M585.43,582.63c-17.79,12.15-35.66,24.1-52.09,35.89-16.55,11.59-31.81,22.69-44.93,32.17C462.24,669.75,445.08,683,445.08,683l.8,1.36L743.21,512.65l-.45-.75a135.48,135.48,0,0,0-15.92,1.88c-4.91.84-10.89,1.9-17.47,3.61s-13.89,3.71-21.66,6.36-16,5.7-24.55,9.39a212.25,212.25,0,0,0-26,12.95,287,287,0,0,0-25.58,17.67C603,570.16,594.29,576.55,585.43,582.63Z"/><polygon class="cls-4" points="770.02 885.65 755.61 499.27 743.21 499.27 743.21 885.65 770.02 885.65"/><path class="cls-4" d="M901.85,582.63c17.76,12.15,35.66,24.1,52.07,35.89,16.55,11.59,31.83,22.69,44.93,32.17C1025,669.75,1042.18,683,1042.18,683l-.76,1.36L744,512.65l.44-.75a135.51,135.51,0,0,1,15.93,1.88c4.91.84,10.89,1.9,17.45,3.61s13.91,3.71,21.69,6.36,16,5.7,24.57,9.39a211.84,211.84,0,0,1,26,12.95,287.72,287.72,0,0,1,25.63,17.67C884.24,570.16,893,576.55,901.85,582.63Z"/><path class="cls-5" d="M782.12,514a38,38,0,1,1-38-38A38,38,0,0,1,782.12,514Z"/><rect class="cls-6" x="690.19" y="870.96" width="107.79" height="29.38"/><path class="cls-4" d="M771.07,514a27,27,0,1,1-27-27A27,27,0,0,1,771.07,514Z"/><polygon class="cls-2" points="473.05 493.84 493.3 1037.33 420.3 1037.33 440.57 493.84 473.05 493.84"/><path class="cls-3" d="M459,511.6a194.73,194.73,0,0,1,22.43,2.68c6.93,1.22,15.32,2.73,24.53,5.16s19.57,5.25,30.48,9S559,536.51,571,541.72A299.22,299.22,0,0,1,607.55,560c12.15,7.23,24,15.91,36,24.93s24.19,18,36.68,26.59c25,17.15,50.06,34,73.12,50.65,23.25,16.36,44.7,32,63.12,45.39,36.74,26.89,60.87,45.53,60.87,45.53L873.86,759s-28.2-11.56-69.85-29.94c-20.81-9.26-45.09-20-70.86-32-26-11.65-53.13-25-80.45-38-13.66-6.54-27.57-12.61-41.34-18.45S584.11,628.86,571.75,622a301.84,301.84,0,0,1-34.1-22.52c-10.49-7.77-20.11-15.61-28.77-23.27s-16.38-15-23-21.9S473.64,541,469.11,535.6a194.65,194.65,0,0,1-13.53-18.06Z"/><path class="cls-3" d="M458.54,517.54A194.75,194.75,0,0,1,445,535.6c-4.51,5.38-10,11.9-16.72,18.67s-14.33,14.32-23,21.9-18.28,15.5-28.76,23.27A300.1,300.1,0,0,1,342.35,622c-12.35,6.9-25.81,12.85-39.59,18.69s-27.7,11.92-41.36,18.45c-27.32,13-54.49,26.37-80.43,38-25.76,12-50.06,22.71-70.85,32C68.44,747.48,40.26,759,40.26,759l-3.42-5.94s24.09-18.65,60.87-45.53c18.39-13.38,39.85-29,63.09-45.39,23.06-16.64,48.2-33.49,73.15-50.65,12.49-8.56,24.71-17.58,36.66-26.59s23.83-17.7,36-24.93a300.32,300.32,0,0,1,36.54-18.29c12-5.21,23.61-9.63,34.54-13.28s21.24-6.66,30.5-9,17.61-3.94,24.53-5.16a194.16,194.16,0,0,1,22.41-2.68Z"/><path class="cls-3" d="M452.88,514.56a195.38,195.38,0,0,1-8.81-20.77c-2.41-6.61-5.27-14.63-7.78-23.84s-5.21-19.58-7.37-30.91-4.24-23.59-5.7-36.56a302.33,302.33,0,0,1-2.37-40.8c.25-14.15,1.85-28.77,3.71-43.62s3.59-29.94,4.81-45c2.41-30.19,4.51-60.37,7.44-88.66,2.6-28.3,5.5-54.7,7.91-77.34,5-45.26,9.15-75.44,9.15-75.44h6.86s4,30.2,8.86,75.48c2.32,22.64,5.09,49.06,7.57,77.37,2.82,28.3,4.81,58.5,7.1,88.67,1.15,15.11,2.81,30.21,4.62,45.07s3.36,29.48,3.52,43.63a301.49,301.49,0,0,1-2.52,40.79c-1.51,13-3.52,25.23-5.84,36.55s-4.89,21.69-7.51,30.88-5.45,17.21-7.87,23.81a190.74,190.74,0,0,1-8.9,20.72Z"/><path class="cls-4" d="M484.26,273.13c-2.3-30.18-4.28-60.37-7.1-88.67-2.48-28.3-5.25-54.73-7.57-77.37-4.83-45.29-8.86-75.48-8.86-75.48h-2.18v483h1.21a190.74,190.74,0,0,0,8.9-20.72c2.42-6.6,5.35-14.61,7.87-23.81s5.27-19.56,7.51-30.88,4.33-23.58,5.84-36.55a301.49,301.49,0,0,0,2.52-40.79c-.16-14.15-1.72-28.78-3.52-43.63S485.41,288.23,484.26,273.13Z"/><path class="cls-4" d="M233.64,611.08c-25,17.09-50.17,33.89-73.25,50.49-23.29,16.3-44.79,31.93-63.22,45.26-36.8,26.81-60.95,45.4-60.95,45.4l1.09,1.91L455.59,512.65,455,511.6a191.6,191.6,0,0,0-22.41,2.64c-6.94,1.2-15.33,2.69-24.55,5.09s-19.56,5.22-30.5,8.94-22.58,8-34.56,13.21a298.63,298.63,0,0,0-36.59,18.21c-12.17,7.23-24.07,15.87-36,24.88S246.12,602.53,233.64,611.08Z"/><polygon class="cls-4" points="493.3 1037.33 473.05 493.84 455.59 493.84 455.59 1037.33 493.3 1037.33"/><path class="cls-4" d="M678.74,611.08c25,17.09,50.13,33.89,73.24,50.49,23.26,16.3,44.77,31.93,63.21,45.26,36.81,26.81,60.93,45.4,60.93,45.4l-1.1,1.91L456.76,512.65l.61-1.05a192.12,192.12,0,0,1,22.43,2.64c6.9,1.2,15.31,2.69,24.53,5.09s19.59,5.22,30.5,8.94,22.6,8,34.56,13.21A297.89,297.89,0,0,1,606,559.68c12.17,7.23,24.07,15.87,36,24.88S666.2,602.53,678.74,611.08Z"/><path class="cls-5" d="M510.3,514.56a53.49,53.49,0,1,1-53.49-53.48A53.49,53.49,0,0,1,510.3,514.56Z"/><rect class="cls-6" x="381.02" y="1016.66" width="151.6" height="41.34"/><path class="cls-4" d="M494.81,514.56a38,38,0,1,1-38-38A38,38,0,0,1,494.81,514.56Z"/></g></g></svg>