<svg xmlns="http://www.w3.org/2000/svg" viewBox="0 0 1080 1080"><defs><style>.cls-1{isolation:isolate;}.cls-2{fill:#d2ebeb;}.cls-11,.cls-3{fill:#fff;}.cls-4{fill:#969696;}.cls-5{fill:#505050;}.cls-6{fill:#b4b4b4;}.cls-7{fill:#58b328;}.cls-8{fill:#78b400;}.cls-9{fill:#469600;}.cls-10{fill:#783200;}.cls-11{opacity:0.2;mix-blend-mode:screen;}</style></defs><title>Artboard 1</title><g class="cls-1"><g id="Layer_1" data-name="Layer 1"><path class="cls-2" d="M850.27,755.9c196.62-102,249.59-360.44,108.1-531.89C819,55.12,556.78,52.79,415.63,229.21,287.49,389.11,321.06,622.12,270,664.3l-57,47.06L338.42,863.43l57-47.06C446.56,774.19,669,851.38,850.27,755.9Z"/><path class="cls-3" d="M862.59,675.79a12.32,12.32,0,0,1,1.67-17.34c117-96.57,133.66-270.35,37.08-387.38a12.32,12.32,0,0,1,19-15.69c105.22,127.51,87.09,316.84-40.41,422.06A12.32,12.32,0,0,1,862.59,675.79Z"/><path class="cls-4" d="M234.47,949.21a24.65,24.65,0,0,1-34.7-3.32L105.65,831.84a24.65,24.65,0,0,1,3.32-34.7l88.12-72.72L322.58,876.5Z"/><path class="cls-5" d="M173.94,950.19a24.65,24.65,0,0,1-28.41-7.1L98.11,885.63a24.65,24.65,0,0,1-1.58-29.24l13-19.79,86.28,104.55Z"/><rect class="cls-6" x="171.69" y="770.31" width="10.45" height="197.17" transform="translate(-512.57 311.33) rotate(-39.53)"/><rect class="cls-6" x="195.9" y="750.33" width="10.44" height="197.17" transform="translate(-494.32 322.17) rotate(-39.53)"/><rect class="cls-6" x="220.11" y="730.36" width="10.44" height="197.17" transform="translate(-476.07 333.01) rotate(-39.53)"/><path class="cls-7" d="M716.34,211.38c-113.07.11-372.76,137.19-225.47,351.16C524.33,495,591.33,481,649.4,407.76S716.34,211.38,716.34,211.38Z"/><path class="cls-7" d="M860.14,385.63c-11.74,44.08-97.69,136.54-199.9,91.73C673.24,425.36,770.62,353,860.14,385.63Z"/><path class="cls-8" d="M824.07,587.15c-53.12-54.69-195.93-90.62-348.8,35.53C624.93,739.51,824.07,587.15,824.07,587.15Z"/><path class="cls-9" d="M661.14,262.27l-16,13.38c-4.81,4.58-10.69,10.08-17.2,16.61-6.19,6.86-13.51,14.28-20.49,23.26-7.34,8.66-14.49,18.7-21.94,29.34S571,367.27,563.86,379.53l-10.3,19-9.8,19.82c-6.25,13.5-12.26,27.36-17.75,41.44a695,695,0,0,0-26.72,84.48,279.2,279.2,0,0,1-12.13,39.86,238.39,238.39,0,0,1-16.81,33.64,233.73,233.73,0,0,1-34.93,44.16c-4.85,4.81-8.93,8.36-11.8,10.72s-4.62,3.63-4.62,3.63l-7.07-10.1s1.32-.88,4-3,6.53-5.36,11.19-9.81A222.24,222.24,0,0,0,461,612a227.66,227.66,0,0,0,16.59-31.77c2.46-5.9,4.66-11.79,6.74-18.29l5.76-20a702.26,702.26,0,0,1,29.46-84.68c6-14.06,12.42-27.87,19.11-41.31q5.27-9.95,10.45-19.71l10.92-18.83c7.52-12.15,15.1-23.7,22.79-34.31s15.29-20.38,22.91-28.88c7.26-8.82,14.84-16.07,21.24-22.77,6.73-6.37,12.79-11.73,17.73-16.17Z"/><path class="cls-9" d="M708.57,597.25s-7.14.24-19.66-.2l-22.54-.67c-8.69-.18-18.48-.47-29.14-.31s-22.19.52-34.3,1.7a340.51,340.51,0,0,0-37.78,5.31c-6.48,1.3-13.07,2.55-19.57,4.53a197.42,197.42,0,0,0-19.66,6,289.38,289.38,0,0,0-38.49,16.25c-12.58,6.19-24.31,13.86-35.79,21.47-10.91,8.43-21.67,16.56-31.86,25.44l-56.34,46.72-55.33,45.14-7.84-9.5,54.82-45.76,56.56-46.45c10.17-8.54,21.63-16.9,33.17-25.42,12.1-7.71,24.46-15.42,37.66-21.61a257.48,257.48,0,0,1,40.37-15.81,206.22,206.22,0,0,1,20.52-5.44c6.77-1.78,13.6-2.83,20.29-3.93a292.84,292.84,0,0,1,38.83-3.84c12.38-.53,24.08-.33,34.83.18,21.53.89,39.27,3.27,51.69,4.52S708.57,597.25,708.57,597.25Z"/><rect class="cls-10" x="280.45" y="669" width="58.53" height="178.94" transform="translate(-411.92 370.6) rotate(-39.53)"/><rect class="cls-6" x="243.9" y="685.45" width="49.29" height="215.65" transform="translate(-443.49 352.36) rotate(-39.53)"/><path class="cls-11" d="M145.53,943.09a24.65,24.65,0,0,0,28.41,7.1l21.91-9,3.92,4.75a24.65,24.65,0,0,0,34.7,3.32l1.17-1,8.06-6.65,16.15-13.33,8.06-6.65L284,908.3l8.06-6.65L312.28,885l5.88,7.13,38-31.37-5.88-7.13,45.15-37.26c51.11-42.18,273.52,35,454.83-60.47,1-.5,1.94-1,2.9-1.49,3-1.63,6-3.37,9.06-5.11s6.16-3.56,9.2-5.44c2.33-1.42,4.64-2.89,7-4.38,3.73-2.43,7.43-4.95,11.1-7.52,1.85-1.29,3.7-2.55,5.53-3.89,5.51-4,11-8.2,16.29-12.6C1060,592.75,1081.09,372.72,958.38,224L121.82,914.36Z"/></g></g></svg>