<svg id="Layer_1" data-name="Layer 1" xmlns="http://www.w3.org/2000/svg" viewBox="0 0 1080 1080"><defs><style>.cls-1,.cls-2{fill:#bf774d;}.cls-1{fill-rule:evenodd;}</style></defs><title>Artboard 1</title><path class="cls-1" d="M555.38,141.95h-52.2l7.26,99.21,26,13.64,26,76.87-3.73,76.87-18,4.82L534,475.49l-40.92-68.17V361.44l18.6-7.45-17.35-45.88L464.57,318l-43.94-41.54L274.73,338.3v35.41L286,385l47.12-3.09L357.3,411l44.65.61L410,426.54l3.11,48.36v70l-22.33,27.9,13.64,9.31v53.92L377.77,652.2v44l-66,71.23,23.45,249.16,23.08,7.79c13.55-49.2,17.88-46.72,13.53-49.2s-29.13-6.21-23.54-12.4,44.62-33.48,80-41.54,42.78.61,55.8-16.13,15.5-17.35,18-29.75,2.47-16.11,2.47-16.11,11.16-58.89,13-80.6,2.47-18-3.11-29.14-5-14.27-3.09-32.26,3.73-24.78-3.09-38.42-14.89-14.89-18-29.77-7.43-25.41,0-29.75,21.09-2.48,21.09-2.48S638.39,477.37,658.23,473.64s42.16,7.43,89.27-42.15,59.52-85.56,60.77-93,0-37.2,0-37.2,9.3-62.62,11.15-91.14-3.11-31.6,2.47-57,7.44-22.93,9.31-40.3,7.43-14.86-2.47-29.14c-.76-1.07-1.47-2.06-2.2-3C809,97.78,787.38,118.31,784.15,119c-5.58,1.24-43.39,1.85-43.39,1.85L714.1,142.58s-8.06-9.31-18-13.64-19.85,21.69-19.85,21.69H608.7c-3.72,0-23.56-19.83-33.48-24.78S555.38,141.95,555.38,141.95Z"/><path class="cls-2" d="M358.27,1028a3.6,3.6,0,0,1-1.15-.19L334,1020a3.6,3.6,0,0,1-2.43-3.07L308.17,767.79a3.57,3.57,0,0,1,.95-2.78l65-70.2V652.2a3.59,3.59,0,0,1,1.74-3.07l24.93-15.08V584l-12.07-8.23a3.52,3.52,0,0,1-1.54-2.42,3.69,3.69,0,0,1,.75-2.8l21.54-26.91V474.9l-3.05-47.35-6.66-12.32-42.54-.61a3.64,3.64,0,0,1-2.72-1.28l-23-27.73-45.28,3a3.57,3.57,0,0,1-2.78-1l-11.29-11.28a3.63,3.63,0,0,1-1.06-2.55V338.3a3.6,3.6,0,0,1,2.2-3.31l145.89-61.81a3.62,3.62,0,0,1,3.89.69l42.37,40.07,27.72-9.24a3.6,3.6,0,0,1,4.51,2.15L515,352.73a3.6,3.6,0,0,1-2,4.61l-16.34,6.53v42.45l34.92,58.19L537.26,413a3.6,3.6,0,0,1,2.64-3.07l15.43-4.13,3.56-73.59-25.36-74.87-24.76-13a3.61,3.61,0,0,1-1.92-2.93l-7.26-99.19a3.64,3.64,0,0,1,.95-2.72,3.59,3.59,0,0,1,2.64-1.14h50c2.7-5.05,10-16.89,18.94-16.89a10.46,10.46,0,0,1,4.73,1.14c5.42,2.72,13.23,9.24,20.13,15,4.48,3.77,10.62,8.91,12.28,9.48l64.61-.09c2.81-6.67,10.38-22.17,20-22.17a9.26,9.26,0,0,1,3.74.8c7.31,3.2,13.58,8.78,16.84,12l24.06-19.6a3.71,3.71,0,0,1,2.21-.82c14.48-.23,38.87-.91,42.68-1.77.77-.4,6.95-4.57,40.65-37.43a3.42,3.42,0,0,1,2.78-1,3.69,3.69,0,0,1,2.6,1.41c.75,1,1.5,2,2.27,3.14,7.41,10.65,7.14,13.6,5.25,20.57a64.33,64.33,0,0,0-2.14,11,88.38,88.38,0,0,1-3.93,19.6c-1.35,4.48-3,10.09-5.44,21.1-3.19,14.53-2.84,21.22-2.36,30.53a200.59,200.59,0,0,1,0,26c-1.84,28.32-11.08,90.79-11.18,91.42.08.55,1.26,29.54,0,37.27-1.71,10.11-16.1,46.87-61.71,94.87-38.71,40.76-61.26,41.56-79.38,42.21a83.33,83.33,0,0,0-11.84,1c-13.59,2.55-96.11,88.51-144.94,142.1a3.62,3.62,0,0,1-3.15,1.16,48.11,48.11,0,0,0-6.28-.38c-5.42,0-9.85.84-12.5,2.38-3.45,2-2.71,6.86,0,18.28.57,2.4,1.17,4.95,1.73,7.66,1.62,7.77,4.64,11.24,8.46,15.66a59.49,59.49,0,0,1,9.22,13.22c6.51,13,5.64,20.66,4.1,34.57l-.86,8c-1.65,15.92-1.92,18.36,3,28.13l1.35,2.65c4,7.81,3.93,8.57,2.75,21.31l-.63,7.07c-1.85,21.64-12.61,78.55-13.06,81v0c.05,0-.08,4.13-2.48,16.15-2.15,10.72-4.59,13.75-11.88,22.74-1.87,2.32-4.1,5.07-6.79,8.53-9.2,11.83-16.62,12.38-28.94,13.31A175.67,175.67,0,0,0,429,924.77c-33.75,7.68-70.42,33-77.42,39.73,2.56,1.71,9.79,3.73,13.5,4.74,4.37,1.2,6.92,1.94,8.48,2.84,4.85,2.76,3.73,5.69,1.5,11.52-2.16,5.64-6.64,17.39-13.35,41.77a3.57,3.57,0,0,1-1.79,2.21A3.42,3.42,0,0,1,358.27,1028Zm-19.72-14,17.27,5.83c6.24-22.25,10.45-33.31,12.55-38.76.41-1.07.8-2.13,1.08-2.91-1.68-.67-4.18-1.37-6.27-2-10.64-2.95-17.73-5.24-19.12-10a5.88,5.88,0,0,1,1.52-5.77c6.74-7.52,46.49-34.59,81.84-42.64a185.25,185.25,0,0,1,30-4.3c12.05-.9,16.56-1.24,23.79-10.53,2.73-3.52,5-6.3,6.89-8.65,7.14-8.8,8.61-10.65,10.4-19.6,2.33-11.64,2.41-15.41,2.41-15.45.18-1.22,11.21-59.58,13-80.87l.63-7.12c1.06-11.41,1.06-11.41-2-17.37l-1.38-2.74c-5.82-11.62-5.37-16-3.68-32.07l.86-8c1.54-13.77,2.17-19.48-3.38-30.57a53.13,53.13,0,0,0-8.22-11.73c-4.15-4.78-8.06-9.31-10.06-18.91-.55-2.63-1.14-5.14-1.69-7.47-2.68-11.39-5-21.22,3.4-26.13,3.83-2.23,9.25-3.37,16.12-3.37,2.16,0,4,.13,5.35.23,17.8-19.5,127.79-139.25,147.7-143a89.23,89.23,0,0,1,12.91-1.1c16.81-.59,37.73-1.37,74.43-40,44.15-46.47,58.34-82.24,59.83-91.1,1-5.81.29-28.3,0-36.47.13-1.31,9.33-63.46,11.15-91.52a193.63,193.63,0,0,0,0-25.14c-.49-9.47-.89-16.95,2.52-32.45,2.47-11.26,4.26-17.24,5.57-21.6a81.31,81.31,0,0,0,3.66-18.3A71.09,71.09,0,0,1,830,100.3c1.38-5.12,1.64-6.11-3.93-14.17-36.38,35.35-39.34,36-41.13,36.38-5.37,1.2-35.53,1.81-42.87,1.94l-25.7,20.91a3.58,3.58,0,0,1-5-.42c-.08-.08-7.67-8.76-16.7-12.72-5.18-.19-11.88,11.37-15.05,19.69a3.59,3.59,0,0,1-3.36,2.32H608.7c-2.89,0-6.37-2.69-16.36-11.07-6.59-5.52-14.05-11.77-18.73-14.09-4.92-2.51-11.74,7.58-15,14.42a3.6,3.6,0,0,1-3.25,2.06H507l6.83,93.33,24.27,12.74a3.51,3.51,0,0,1,1.74,2l26,76.89a3.52,3.52,0,0,1,.19,1.33l-3.73,76.87a3.57,3.57,0,0,1-2.66,3.28l-15.59,4.19-6.56,59.69a3.58,3.58,0,0,1-2.81,3.12,3.52,3.52,0,0,1-3.84-1.64L490,409.17a3.62,3.62,0,0,1-.52-1.85V361.44a3.61,3.61,0,0,1,2.25-3.35L507.06,352l-14.88-39.35-26.49,8.82a3.55,3.55,0,0,1-3.61-.78l-42.23-39.94-141.53,60v31.54l9.07,9.07,45.49-3a3.49,3.49,0,0,1,3,1.28L359,407.47l43,.59a3.6,3.6,0,0,1,3.11,1.9l8.05,14.86a3.7,3.7,0,0,1,.42,1.49l3.12,48.36V545a3.71,3.71,0,0,1-.79,2.25L396,572.07l10.44,7.12a3.59,3.59,0,0,1,1.57,3v53.92a3.55,3.55,0,0,1-1.74,3.07l-24.92,15.1v42a3.56,3.56,0,0,1-1,2.44l-64.91,70Z"/></svg>